<?xml version="1.0" encoding="UTF-8" standalone="no"?>
<!DOCTYPE svg PUBLIC "-//W3C//DTD SVG 1.1//EN" "http://www.w3.org/Graphics/SVG/1.1/DTD/svg11.dtd">
<svg width="100%" height="100%" viewBox="0 0 516 434" version="1.1" xmlns="http://www.w3.org/2000/svg" xmlns:xlink="http://www.w3.org/1999/xlink" xml:space="preserve" xmlns:serif="http://www.serif.com/" style="fill-rule:evenodd;clip-rule:evenodd;stroke-linejoin:round;stroke-miterlimit:1.41421;">
    <g transform="matrix(1,0,0,1,-2.66861,-15)">
        <g transform="matrix(1,0,0,1,-4.51396,30)">
            <g transform="matrix(1,0,0,1,-27.8166,-105.337)">
                <path d="M391.2,385.1C391.2,403.5 376.3,418.3 358,418.3C339.7,418.3 324.8,403.4 324.8,385.1C324.8,360.2 316.5,351.9 291.6,351.9C266.7,351.9 258.4,360.2 258.4,385.1C258.4,403.5 243.5,418.3 225.2,418.3C206.9,418.3 192,403.4 192,385.1C192,366.7 206.9,351.9 225.2,351.9C250.1,351.9 258.4,343.6 258.4,318.7C258.4,300.3 273.3,285.5 291.6,285.5C309.9,285.5 324.8,300.4 324.8,318.7C324.8,343.6 333.1,351.9 358,351.9C376.4,351.9 391.2,366.7 391.2,385.1Z" style="fill:rgb(26,26,26);fill-rule:nonzero;"/>
            </g>
        </g>
        <g transform="matrix(1,0,0,1,-4.51396,30)">
            <g transform="matrix(-1,0.000370846,-0.000370846,-1,555.29,455.24)">
                <path d="M391.2,385.1C391.2,403.5 376.3,418.3 358,418.3C339.7,418.3 324.8,403.4 324.8,385.1C324.8,360.2 316.5,351.9 291.6,351.9C266.7,351.9 258.4,360.2 258.4,385.1C258.4,403.5 243.5,418.3 225.2,418.3C206.9,418.3 192,403.4 192,385.1C192,366.7 206.9,351.9 225.2,351.9C250.1,351.9 258.4,343.6 258.4,318.7C258.4,300.3 273.3,285.5 291.6,285.5C309.9,285.5 324.8,300.4 324.8,318.7C324.8,343.6 333.1,351.9 358,351.9C376.4,351.9 391.2,366.7 391.2,385.1Z" style="fill:rgb(26,26,26);fill-rule:nonzero;"/>
            </g>
        </g>
        <g transform="matrix(1,0,0,1,-4.51396,30)">
            <g transform="matrix(-0.999987,-0.00506138,0.00506138,-0.999987,420.142,470.597)">
                <circle cx="158.6" cy="451.6" r="33.2" style="fill:rgb(26,26,26);"/>
            </g>
        </g>
        <g transform="matrix(1,0,0,1,-4.51396,30)">
            <g transform="matrix(0.886836,0,0,0.886836,-0.224284,417.822)">
                <g>
                    <g>
                        <text x="0px" y="0px" style="font-family:'Lato-Regular', 'Lato', sans-serif;font-size:96px;fill:rgb(26,26,26);">N</text>
                        <text x="86.016px" y="0px" style="font-family:'Lato-Regular', 'Lato', sans-serif;font-size:96px;fill:rgb(26,26,26);">A<tspan x="158.016px 237.312px 320.64px 403.968px 482.976px 539.04px " y="0px 0px 0px 0px 0px 0px ">NOODLE</tspan></text>
                    </g>
                </g>
            </g>
        </g>
    </g>
</svg>
