<?xml version="1.0" encoding="UTF-8" standalone="no"?>
<!DOCTYPE svg PUBLIC "-//W3C//DTD SVG 1.1//EN" "http://www.w3.org/Graphics/SVG/1.1/DTD/svg11.dtd">
<svg width="100%" height="100%" viewBox="0 0 1230 328" version="1.1" xmlns="http://www.w3.org/2000/svg" xmlns:xlink="http://www.w3.org/1999/xlink" xml:space="preserve" xmlns:serif="http://www.serif.com/" style="fill-rule:evenodd;clip-rule:evenodd;stroke-linejoin:round;stroke-miterlimit:1.41421;">
    <g transform="matrix(1,0,0,1,-319.524,-199.412)">
        <g transform="matrix(1,0,0,1,127.76,109.075)">
            <path d="M391.2,385.1C391.2,403.5 376.3,418.3 358,418.3C339.7,418.3 324.8,403.4 324.8,385.1C324.8,360.2 316.5,351.9 291.6,351.9C266.7,351.9 258.4,360.2 258.4,385.1C258.4,403.5 243.5,418.3 225.2,418.3C206.9,418.3 192,403.4 192,385.1C192,366.7 206.9,351.9 225.2,351.9C250.1,351.9 258.4,343.6 258.4,318.7C258.4,300.3 273.3,285.5 291.6,285.5C309.9,285.5 324.8,300.4 324.8,318.7C324.8,343.6 333.1,351.9 358,351.9C376.4,351.9 391.2,366.7 391.2,385.1Z" style="fill:white;fill-rule:nonzero;"/>
        </g>
        <g transform="matrix(-1,0.000370846,-0.000370846,-1,710.867,669.652)">
            <path d="M391.2,385.1C391.2,403.5 376.3,418.3 358,418.3C339.7,418.3 324.8,403.4 324.8,385.1C324.8,360.2 316.5,351.9 291.6,351.9C266.7,351.9 258.4,360.2 258.4,385.1C258.4,403.5 243.5,418.3 225.2,418.3C206.9,418.3 192,403.4 192,385.1C192,366.7 206.9,351.9 225.2,351.9C250.1,351.9 258.4,343.6 258.4,318.7C258.4,300.3 273.3,285.5 291.6,285.5C309.9,285.5 324.8,300.4 324.8,318.7C324.8,343.6 333.1,351.9 358,351.9C376.4,351.9 391.2,366.7 391.2,385.1Z" style="fill:white;fill-rule:nonzero;"/>
        </g>
        <g transform="matrix(-0.999987,-0.00506138,0.00506138,-0.999987,575.719,685.009)">
            <circle cx="158.6" cy="451.6" r="33.2" style="fill:white;"/>
        </g>
        <g transform="matrix(1,0,0,1,-130.396,-19.8067)">
            <path d="M717.418,328.535L809.41,423.164L809.41,333.515L826.402,333.515L826.402,463.691L734.41,369.55L734.41,457.929L717.418,457.929L717.418,328.535Z" style="fill:white;fill-rule:nonzero;"/>
            <path d="M898.18,328.73L956.969,457.929L939.195,457.929L924.644,426.093L871.812,426.093L857.652,457.929L839.977,457.929L898.18,328.73ZM898.18,367.695L878.16,411.933L918.199,411.933L898.18,367.695Z" style="fill:white;fill-rule:nonzero;"/>
            <path d="M971.617,328.535L1063.61,423.164L1063.61,333.515L1080.6,333.515L1080.6,463.691L988.609,369.55L988.609,457.929L971.617,457.929L971.617,328.535Z" style="fill:white;fill-rule:nonzero;"/>
            <path d="M1100.82,394.941C1100.82,376.972 1107.59,361.575 1121.13,348.749C1134.67,335.924 1150.95,329.511 1169.96,329.511C1188.51,329.511 1204.5,335.973 1217.91,348.896C1231.32,361.819 1238.02,377.167 1238.02,394.941C1238.02,413.756 1231.4,429.658 1218.15,442.646C1204.9,455.634 1188.64,462.128 1169.37,462.128C1150.36,462.128 1134.18,455.585 1120.84,442.499C1107.49,429.414 1100.82,413.561 1100.82,394.941ZM1219.96,395.722C1219.96,381.985 1215.01,370.413 1205.11,361.005C1195.22,351.598 1183.04,346.894 1168.59,346.894C1154.85,346.894 1143.09,351.679 1133.29,361.249C1123.49,370.82 1118.59,382.311 1118.59,395.722C1118.59,409.329 1123.62,420.836 1133.68,430.244C1143.74,439.651 1156.06,444.355 1170.64,444.355C1184.05,444.355 1195.62,439.554 1205.36,429.951C1215.09,420.348 1219.96,408.938 1219.96,395.722Z" style="fill:white;fill-rule:nonzero;"/>
            <path d="M1255.02,394.941C1255.02,376.972 1261.79,361.575 1275.33,348.749C1288.87,335.924 1305.15,329.511 1324.16,329.511C1342.71,329.511 1358.69,335.973 1372.11,348.896C1385.52,361.819 1392.22,377.167 1392.22,394.941C1392.22,413.756 1385.6,429.658 1372.35,442.646C1359.1,455.634 1342.84,462.128 1323.57,462.128C1304.56,462.128 1288.38,455.585 1275.04,442.499C1261.69,429.414 1255.02,413.561 1255.02,394.941ZM1374.16,395.722C1374.16,381.985 1369.21,370.413 1359.31,361.005C1349.42,351.598 1337.24,346.894 1322.79,346.894C1309.05,346.894 1297.28,351.679 1287.49,361.249C1277.69,370.82 1272.79,382.311 1272.79,395.722C1272.79,409.329 1277.82,420.836 1287.88,430.244C1297.94,439.651 1310.26,444.355 1324.84,444.355C1338.25,444.355 1349.82,439.554 1359.56,429.951C1369.29,420.348 1374.16,408.938 1374.16,395.722Z" style="fill:white;fill-rule:nonzero;"/>
            <path d="M1414.59,333.515L1444.76,333.515C1468.65,333.515 1486.43,339.83 1498.08,352.46C1509.74,365.091 1515.56,379.511 1515.56,395.722C1515.56,412.063 1509.54,426.516 1497.5,439.082C1485.45,451.647 1467.94,457.929 1444.96,457.929L1414.59,457.929L1414.59,333.515ZM1431.58,350.117L1431.58,441.132L1432.56,441.132C1445.18,441.132 1454.69,440.563 1461.07,439.423C1467.45,438.284 1473.51,435.794 1479.23,431.953C1484.96,428.111 1489.52,423.017 1492.91,416.669C1496.29,410.322 1497.98,403.339 1497.98,395.722C1497.98,386.152 1495.28,377.493 1489.88,369.746C1484.48,361.998 1478.01,356.79 1470.49,354.121C1462.98,351.451 1452.87,350.117 1440.17,350.117L1431.58,350.117Z" style="fill:white;fill-rule:nonzero;"/>
            <path d="M1537.63,333.515L1554.43,333.515L1554.43,441.132L1594.96,441.132L1594.96,457.929L1537.63,457.929L1537.63,333.515Z" style="fill:white;fill-rule:nonzero;"/>
            <path d="M1610.78,333.515L1679.72,333.515L1679.72,350.507L1627.57,350.507L1627.57,381.562L1679.72,381.562L1679.72,398.359L1627.57,398.359L1627.57,441.132L1679.72,441.132L1679.72,457.929L1610.78,457.929L1610.78,333.515Z" style="fill:white;fill-rule:nonzero;"/>
        </g>
    </g>
</svg>
